<mxfile host="app.diagrams.net" agent="Mozilla/5.0 (Windows NT 10.0; Win64; x64; rv:144.0) Gecko/20100101 Firefox/144.0" version="28.2.8">
  <diagram name="Page-1" id="_ymlssYARwB8NH0EXUo1">
    <mxGraphModel dx="2820" dy="1792" grid="1" gridSize="10" guides="1" tooltips="1" connect="1" arrows="1" fold="1" page="1" pageScale="1" pageWidth="850" pageHeight="1100" math="0" shadow="0">
      <root>
        <mxCell id="0" />
        <mxCell id="1" parent="0" />
        <mxCell id="g-0dDWGLzAFPDD_OZHpl-1" value="&lt;strong data-end=&quot;494&quot; data-start=&quot;457&quot;&gt;Prescription and Billing Workflow&lt;/strong&gt;" style="text;html=1;whiteSpace=wrap;strokeColor=none;fillColor=none;align=center;verticalAlign=middle;rounded=0;fontStyle=1;fontSize=32;" vertex="1" parent="1">
          <mxGeometry x="1000" y="110" width="610" height="30" as="geometry" />
        </mxCell>
        <mxCell id="g-0dDWGLzAFPDD_OZHpl-2" value="Pool" style="swimlane;html=1;childLayout=stackLayout;resizeParent=1;resizeParentMax=0;startSize=20;horizontal=0;horizontalStack=1;whiteSpace=wrap;" vertex="1" parent="1">
          <mxGeometry x="365" y="290" width="1820" height="2030" as="geometry" />
        </mxCell>
        <mxCell id="g-0dDWGLzAFPDD_OZHpl-3" value="Doctor" style="swimlane;html=1;startSize=20;" vertex="1" parent="g-0dDWGLzAFPDD_OZHpl-2">
          <mxGeometry x="20" width="475" height="2030" as="geometry" />
        </mxCell>
        <mxCell id="g-0dDWGLzAFPDD_OZHpl-8" value="" style="edgeStyle=orthogonalEdgeStyle;rounded=0;orthogonalLoop=1;jettySize=auto;html=1;" edge="1" parent="g-0dDWGLzAFPDD_OZHpl-3" source="g-0dDWGLzAFPDD_OZHpl-6" target="g-0dDWGLzAFPDD_OZHpl-7">
          <mxGeometry relative="1" as="geometry" />
        </mxCell>
        <mxCell id="g-0dDWGLzAFPDD_OZHpl-6" value="" style="shape=waypoint;sketch=0;size=6;pointerEvents=1;points=[];fillColor=none;resizable=0;rotatable=0;perimeter=centerPerimeter;snapToPoint=1;" vertex="1" parent="g-0dDWGLzAFPDD_OZHpl-3">
          <mxGeometry x="227.5" y="60" width="20" height="20" as="geometry" />
        </mxCell>
        <mxCell id="g-0dDWGLzAFPDD_OZHpl-10" value="" style="edgeStyle=orthogonalEdgeStyle;rounded=0;orthogonalLoop=1;jettySize=auto;html=1;" edge="1" parent="g-0dDWGLzAFPDD_OZHpl-3" source="g-0dDWGLzAFPDD_OZHpl-7" target="g-0dDWGLzAFPDD_OZHpl-9">
          <mxGeometry relative="1" as="geometry" />
        </mxCell>
        <mxCell id="g-0dDWGLzAFPDD_OZHpl-7" value="Log into Medalyze" style="rounded=1;whiteSpace=wrap;html=1;fillColor=none;sketch=0;pointerEvents=1;resizable=0;" vertex="1" parent="g-0dDWGLzAFPDD_OZHpl-3">
          <mxGeometry x="177.5" y="140" width="120" height="60" as="geometry" />
        </mxCell>
        <mxCell id="g-0dDWGLzAFPDD_OZHpl-12" value="" style="edgeStyle=orthogonalEdgeStyle;rounded=0;orthogonalLoop=1;jettySize=auto;html=1;" edge="1" parent="g-0dDWGLzAFPDD_OZHpl-3" source="g-0dDWGLzAFPDD_OZHpl-9" target="g-0dDWGLzAFPDD_OZHpl-11">
          <mxGeometry relative="1" as="geometry" />
        </mxCell>
        <mxCell id="g-0dDWGLzAFPDD_OZHpl-9" value="Open patient record" style="rounded=1;whiteSpace=wrap;html=1;fillColor=none;sketch=0;pointerEvents=1;resizable=0;" vertex="1" parent="g-0dDWGLzAFPDD_OZHpl-3">
          <mxGeometry x="177.5" y="280" width="120" height="60" as="geometry" />
        </mxCell>
        <mxCell id="g-0dDWGLzAFPDD_OZHpl-11" value="Enter new prescription details" style="rounded=1;whiteSpace=wrap;html=1;fillColor=none;sketch=0;pointerEvents=1;resizable=0;" vertex="1" parent="g-0dDWGLzAFPDD_OZHpl-3">
          <mxGeometry x="177.5" y="420" width="120" height="60" as="geometry" />
        </mxCell>
        <mxCell id="g-0dDWGLzAFPDD_OZHpl-26" value="Edit prescription details" style="rounded=1;whiteSpace=wrap;html=1;fillColor=none;sketch=0;pointerEvents=1;resizable=0;" vertex="1" parent="g-0dDWGLzAFPDD_OZHpl-3">
          <mxGeometry x="177.5" y="760" width="120" height="60" as="geometry" />
        </mxCell>
        <mxCell id="g-0dDWGLzAFPDD_OZHpl-4" value="Sytstem" style="swimlane;html=1;startSize=20;" vertex="1" parent="g-0dDWGLzAFPDD_OZHpl-2">
          <mxGeometry x="495" width="515" height="2030" as="geometry" />
        </mxCell>
        <mxCell id="g-0dDWGLzAFPDD_OZHpl-16" value="" style="edgeStyle=orthogonalEdgeStyle;rounded=0;orthogonalLoop=1;jettySize=auto;html=1;" edge="1" parent="g-0dDWGLzAFPDD_OZHpl-4" source="g-0dDWGLzAFPDD_OZHpl-13" target="g-0dDWGLzAFPDD_OZHpl-15">
          <mxGeometry relative="1" as="geometry">
            <Array as="points">
              <mxPoint x="255" y="590" />
              <mxPoint x="255" y="590" />
            </Array>
          </mxGeometry>
        </mxCell>
        <mxCell id="g-0dDWGLzAFPDD_OZHpl-13" value="Validate prescription format (drug codes, dosage, patient ID)" style="rounded=1;whiteSpace=wrap;html=1;fillColor=none;sketch=0;pointerEvents=1;resizable=0;" vertex="1" parent="g-0dDWGLzAFPDD_OZHpl-4">
          <mxGeometry x="195" y="420" width="120" height="60" as="geometry" />
        </mxCell>
        <mxCell id="g-0dDWGLzAFPDD_OZHpl-18" value="" style="edgeStyle=orthogonalEdgeStyle;rounded=0;orthogonalLoop=1;jettySize=auto;html=1;exitX=1;exitY=0.5;exitDx=0;exitDy=0;" edge="1" parent="g-0dDWGLzAFPDD_OZHpl-4" source="g-0dDWGLzAFPDD_OZHpl-15" target="g-0dDWGLzAFPDD_OZHpl-17">
          <mxGeometry relative="1" as="geometry" />
        </mxCell>
        <mxCell id="g-0dDWGLzAFPDD_OZHpl-19" value="Yes" style="edgeLabel;html=1;align=center;verticalAlign=middle;resizable=0;points=[];" vertex="1" connectable="0" parent="g-0dDWGLzAFPDD_OZHpl-18">
          <mxGeometry x="-0.105" y="1" relative="1" as="geometry">
            <mxPoint x="-35" y="1" as="offset" />
          </mxGeometry>
        </mxCell>
        <mxCell id="g-0dDWGLzAFPDD_OZHpl-24" value="" style="edgeStyle=orthogonalEdgeStyle;rounded=0;orthogonalLoop=1;jettySize=auto;html=1;exitX=0;exitY=0.5;exitDx=0;exitDy=0;" edge="1" parent="g-0dDWGLzAFPDD_OZHpl-4" source="g-0dDWGLzAFPDD_OZHpl-15" target="g-0dDWGLzAFPDD_OZHpl-23">
          <mxGeometry relative="1" as="geometry" />
        </mxCell>
        <mxCell id="g-0dDWGLzAFPDD_OZHpl-25" value="No" style="edgeLabel;html=1;align=center;verticalAlign=middle;resizable=0;points=[];" vertex="1" connectable="0" parent="g-0dDWGLzAFPDD_OZHpl-24">
          <mxGeometry x="-0.3471" relative="1" as="geometry">
            <mxPoint x="14" as="offset" />
          </mxGeometry>
        </mxCell>
        <mxCell id="g-0dDWGLzAFPDD_OZHpl-15" value="Is prescription valid?" style="rhombus;whiteSpace=wrap;html=1;fillColor=none;rounded=1;sketch=0;pointerEvents=1;resizable=0;" vertex="1" parent="g-0dDWGLzAFPDD_OZHpl-4">
          <mxGeometry x="217.5" y="610" width="80" height="80" as="geometry" />
        </mxCell>
        <mxCell id="g-0dDWGLzAFPDD_OZHpl-17" value="Transmit e-prescription to Pharmacy" style="rounded=1;whiteSpace=wrap;html=1;fillColor=none;sketch=0;pointerEvents=1;resizable=0;" vertex="1" parent="g-0dDWGLzAFPDD_OZHpl-4">
          <mxGeometry x="335" y="760" width="120" height="60" as="geometry" />
        </mxCell>
        <mxCell id="g-0dDWGLzAFPDD_OZHpl-23" value="Show error" style="rounded=1;whiteSpace=wrap;html=1;fillColor=none;sketch=0;pointerEvents=1;resizable=0;" vertex="1" parent="g-0dDWGLzAFPDD_OZHpl-4">
          <mxGeometry x="65" y="760" width="120" height="60" as="geometry" />
        </mxCell>
        <mxCell id="g-0dDWGLzAFPDD_OZHpl-36" value="Alert doctor" style="whiteSpace=wrap;html=1;fillColor=none;rounded=1;sketch=0;pointerEvents=1;resizable=0;" vertex="1" parent="g-0dDWGLzAFPDD_OZHpl-4">
          <mxGeometry x="197.5" y="1030" width="120" height="60" as="geometry" />
        </mxCell>
        <mxCell id="g-0dDWGLzAFPDD_OZHpl-46" value="" style="edgeStyle=orthogonalEdgeStyle;rounded=0;orthogonalLoop=1;jettySize=auto;html=1;" edge="1" parent="g-0dDWGLzAFPDD_OZHpl-4" source="g-0dDWGLzAFPDD_OZHpl-43" target="g-0dDWGLzAFPDD_OZHpl-45">
          <mxGeometry relative="1" as="geometry" />
        </mxCell>
        <mxCell id="g-0dDWGLzAFPDD_OZHpl-43" value="Forward billing data to Insurance Dept." style="rounded=1;whiteSpace=wrap;html=1;fillColor=none;sketch=0;pointerEvents=1;resizable=0;" vertex="1" parent="g-0dDWGLzAFPDD_OZHpl-4">
          <mxGeometry x="197.5" y="1310" width="120" height="60" as="geometry" />
        </mxCell>
        <mxCell id="g-0dDWGLzAFPDD_OZHpl-51" value="" style="edgeStyle=orthogonalEdgeStyle;rounded=0;orthogonalLoop=1;jettySize=auto;html=1;" edge="1" parent="g-0dDWGLzAFPDD_OZHpl-4" source="g-0dDWGLzAFPDD_OZHpl-45" target="g-0dDWGLzAFPDD_OZHpl-50">
          <mxGeometry relative="1" as="geometry" />
        </mxCell>
        <mxCell id="g-0dDWGLzAFPDD_OZHpl-52" value="No" style="edgeLabel;html=1;align=center;verticalAlign=middle;resizable=0;points=[];" vertex="1" connectable="0" parent="g-0dDWGLzAFPDD_OZHpl-51">
          <mxGeometry x="-0.0513" relative="1" as="geometry">
            <mxPoint as="offset" />
          </mxGeometry>
        </mxCell>
        <mxCell id="g-0dDWGLzAFPDD_OZHpl-45" value="Is the patient insured?" style="rhombus;whiteSpace=wrap;html=1;fillColor=none;rounded=1;sketch=0;pointerEvents=1;resizable=0;" vertex="1" parent="g-0dDWGLzAFPDD_OZHpl-4">
          <mxGeometry x="217.5" y="1440" width="80" height="80" as="geometry" />
        </mxCell>
        <mxCell id="g-0dDWGLzAFPDD_OZHpl-54" value="" style="edgeStyle=orthogonalEdgeStyle;rounded=0;orthogonalLoop=1;jettySize=auto;html=1;" edge="1" parent="g-0dDWGLzAFPDD_OZHpl-4" source="g-0dDWGLzAFPDD_OZHpl-50" target="g-0dDWGLzAFPDD_OZHpl-53">
          <mxGeometry relative="1" as="geometry" />
        </mxCell>
        <mxCell id="g-0dDWGLzAFPDD_OZHpl-50" value="Request direct payment from patient" style="rounded=1;whiteSpace=wrap;html=1;fillColor=none;sketch=0;pointerEvents=1;resizable=0;" vertex="1" parent="g-0dDWGLzAFPDD_OZHpl-4">
          <mxGeometry x="197.5" y="1615" width="120" height="60" as="geometry" />
        </mxCell>
        <mxCell id="g-0dDWGLzAFPDD_OZHpl-56" value="" style="edgeStyle=orthogonalEdgeStyle;rounded=0;orthogonalLoop=1;jettySize=auto;html=1;" edge="1" parent="g-0dDWGLzAFPDD_OZHpl-4" source="g-0dDWGLzAFPDD_OZHpl-53" target="g-0dDWGLzAFPDD_OZHpl-55">
          <mxGeometry relative="1" as="geometry" />
        </mxCell>
        <mxCell id="g-0dDWGLzAFPDD_OZHpl-53" value="Send payment confirmation and prescription completion to doctor &amp;amp; patient" style="rounded=1;whiteSpace=wrap;html=1;fillColor=none;sketch=0;pointerEvents=1;resizable=0;" vertex="1" parent="g-0dDWGLzAFPDD_OZHpl-4">
          <mxGeometry x="197.5" y="1765" width="120" height="60" as="geometry" />
        </mxCell>
        <mxCell id="g-0dDWGLzAFPDD_OZHpl-55" value="" style="shape=waypoint;sketch=0;size=6;pointerEvents=1;points=[];fillColor=none;resizable=0;rotatable=0;perimeter=centerPerimeter;snapToPoint=1;rounded=1;" vertex="1" parent="g-0dDWGLzAFPDD_OZHpl-4">
          <mxGeometry x="247.5" y="1920" width="20" height="20" as="geometry" />
        </mxCell>
        <mxCell id="g-0dDWGLzAFPDD_OZHpl-5" value="Pharmacy" style="swimlane;html=1;startSize=20;" vertex="1" parent="g-0dDWGLzAFPDD_OZHpl-2">
          <mxGeometry x="1010" width="410" height="2030" as="geometry" />
        </mxCell>
        <mxCell id="g-0dDWGLzAFPDD_OZHpl-29" value="Receive prescription" style="rounded=1;whiteSpace=wrap;html=1;fillColor=none;sketch=0;pointerEvents=1;resizable=0;" vertex="1" parent="g-0dDWGLzAFPDD_OZHpl-5">
          <mxGeometry x="145" y="760" width="120" height="60" as="geometry" />
        </mxCell>
        <mxCell id="g-0dDWGLzAFPDD_OZHpl-34" value="" style="edgeStyle=orthogonalEdgeStyle;rounded=0;orthogonalLoop=1;jettySize=auto;html=1;" edge="1" parent="g-0dDWGLzAFPDD_OZHpl-5" source="g-0dDWGLzAFPDD_OZHpl-31" target="g-0dDWGLzAFPDD_OZHpl-33">
          <mxGeometry relative="1" as="geometry" />
        </mxCell>
        <mxCell id="g-0dDWGLzAFPDD_OZHpl-35" value="No" style="edgeLabel;html=1;align=center;verticalAlign=middle;resizable=0;points=[];" vertex="1" connectable="0" parent="g-0dDWGLzAFPDD_OZHpl-34">
          <mxGeometry x="-0.1172" y="1" relative="1" as="geometry">
            <mxPoint as="offset" />
          </mxGeometry>
        </mxCell>
        <mxCell id="g-0dDWGLzAFPDD_OZHpl-31" value="Medicine in stock?" style="rhombus;whiteSpace=wrap;html=1;fillColor=none;rounded=1;sketch=0;pointerEvents=1;resizable=0;" vertex="1" parent="g-0dDWGLzAFPDD_OZHpl-5">
          <mxGeometry x="165" y="890" width="80" height="80" as="geometry" />
        </mxCell>
        <mxCell id="g-0dDWGLzAFPDD_OZHpl-32" value="" style="edgeStyle=orthogonalEdgeStyle;rounded=0;orthogonalLoop=1;jettySize=auto;html=1;" edge="1" parent="g-0dDWGLzAFPDD_OZHpl-5" source="g-0dDWGLzAFPDD_OZHpl-29" target="g-0dDWGLzAFPDD_OZHpl-31">
          <mxGeometry relative="1" as="geometry" />
        </mxCell>
        <mxCell id="g-0dDWGLzAFPDD_OZHpl-40" value="" style="edgeStyle=orthogonalEdgeStyle;rounded=0;orthogonalLoop=1;jettySize=auto;html=1;" edge="1" parent="g-0dDWGLzAFPDD_OZHpl-5" source="g-0dDWGLzAFPDD_OZHpl-33" target="g-0dDWGLzAFPDD_OZHpl-39">
          <mxGeometry relative="1" as="geometry" />
        </mxCell>
        <mxCell id="g-0dDWGLzAFPDD_OZHpl-33" value="Notify system" style="rounded=1;whiteSpace=wrap;html=1;fillColor=none;sketch=0;pointerEvents=1;resizable=0;" vertex="1" parent="g-0dDWGLzAFPDD_OZHpl-5">
          <mxGeometry x="145" y="1030" width="120" height="60" as="geometry" />
        </mxCell>
        <mxCell id="g-0dDWGLzAFPDD_OZHpl-42" value="" style="edgeStyle=orthogonalEdgeStyle;rounded=0;orthogonalLoop=1;jettySize=auto;html=1;" edge="1" parent="g-0dDWGLzAFPDD_OZHpl-5" source="g-0dDWGLzAFPDD_OZHpl-39" target="g-0dDWGLzAFPDD_OZHpl-41">
          <mxGeometry relative="1" as="geometry" />
        </mxCell>
        <mxCell id="g-0dDWGLzAFPDD_OZHpl-39" value="Dispense medicine" style="rounded=1;whiteSpace=wrap;html=1;fillColor=none;sketch=0;pointerEvents=1;resizable=0;" vertex="1" parent="g-0dDWGLzAFPDD_OZHpl-5">
          <mxGeometry x="145" y="1170" width="120" height="60" as="geometry" />
        </mxCell>
        <mxCell id="g-0dDWGLzAFPDD_OZHpl-41" value="Send billing information to Medalyze" style="whiteSpace=wrap;html=1;fillColor=none;rounded=1;sketch=0;pointerEvents=1;resizable=0;" vertex="1" parent="g-0dDWGLzAFPDD_OZHpl-5">
          <mxGeometry x="145" y="1310" width="120" height="60" as="geometry" />
        </mxCell>
        <mxCell id="g-0dDWGLzAFPDD_OZHpl-57" value="Billing/Insurance" style="swimlane;html=1;startSize=20;" vertex="1" parent="g-0dDWGLzAFPDD_OZHpl-2">
          <mxGeometry x="1420" width="400" height="2030" as="geometry" />
        </mxCell>
        <mxCell id="g-0dDWGLzAFPDD_OZHpl-47" value="Validate claim and approve payment" style="rounded=1;whiteSpace=wrap;html=1;fillColor=none;sketch=0;pointerEvents=1;resizable=0;" vertex="1" parent="g-0dDWGLzAFPDD_OZHpl-57">
          <mxGeometry x="140" y="1450" width="120" height="60" as="geometry" />
        </mxCell>
        <mxCell id="g-0dDWGLzAFPDD_OZHpl-14" value="" style="edgeStyle=orthogonalEdgeStyle;rounded=0;orthogonalLoop=1;jettySize=auto;html=1;" edge="1" parent="g-0dDWGLzAFPDD_OZHpl-2" source="g-0dDWGLzAFPDD_OZHpl-11" target="g-0dDWGLzAFPDD_OZHpl-13">
          <mxGeometry relative="1" as="geometry" />
        </mxCell>
        <mxCell id="g-0dDWGLzAFPDD_OZHpl-27" value="" style="edgeStyle=orthogonalEdgeStyle;rounded=0;orthogonalLoop=1;jettySize=auto;html=1;" edge="1" parent="g-0dDWGLzAFPDD_OZHpl-2" source="g-0dDWGLzAFPDD_OZHpl-23" target="g-0dDWGLzAFPDD_OZHpl-26">
          <mxGeometry relative="1" as="geometry" />
        </mxCell>
        <mxCell id="g-0dDWGLzAFPDD_OZHpl-30" value="" style="edgeStyle=orthogonalEdgeStyle;rounded=0;orthogonalLoop=1;jettySize=auto;html=1;" edge="1" parent="g-0dDWGLzAFPDD_OZHpl-2" source="g-0dDWGLzAFPDD_OZHpl-17" target="g-0dDWGLzAFPDD_OZHpl-29">
          <mxGeometry relative="1" as="geometry" />
        </mxCell>
        <mxCell id="g-0dDWGLzAFPDD_OZHpl-37" value="" style="edgeStyle=orthogonalEdgeStyle;rounded=0;orthogonalLoop=1;jettySize=auto;html=1;" edge="1" parent="g-0dDWGLzAFPDD_OZHpl-2" source="g-0dDWGLzAFPDD_OZHpl-33" target="g-0dDWGLzAFPDD_OZHpl-36">
          <mxGeometry relative="1" as="geometry" />
        </mxCell>
        <mxCell id="g-0dDWGLzAFPDD_OZHpl-38" style="edgeStyle=orthogonalEdgeStyle;rounded=0;orthogonalLoop=1;jettySize=auto;html=1;entryX=0.5;entryY=1;entryDx=0;entryDy=0;" edge="1" parent="g-0dDWGLzAFPDD_OZHpl-2" source="g-0dDWGLzAFPDD_OZHpl-36" target="g-0dDWGLzAFPDD_OZHpl-26">
          <mxGeometry relative="1" as="geometry">
            <mxPoint x="230" y="800" as="targetPoint" />
          </mxGeometry>
        </mxCell>
        <mxCell id="g-0dDWGLzAFPDD_OZHpl-44" value="" style="edgeStyle=orthogonalEdgeStyle;rounded=0;orthogonalLoop=1;jettySize=auto;html=1;" edge="1" parent="g-0dDWGLzAFPDD_OZHpl-2" source="g-0dDWGLzAFPDD_OZHpl-41" target="g-0dDWGLzAFPDD_OZHpl-43">
          <mxGeometry relative="1" as="geometry" />
        </mxCell>
        <mxCell id="g-0dDWGLzAFPDD_OZHpl-58" style="edgeStyle=orthogonalEdgeStyle;rounded=0;orthogonalLoop=1;jettySize=auto;html=1;exitX=0.5;exitY=0;exitDx=0;exitDy=0;entryX=0;entryY=0.75;entryDx=0;entryDy=0;" edge="1" parent="g-0dDWGLzAFPDD_OZHpl-2" source="g-0dDWGLzAFPDD_OZHpl-26" target="g-0dDWGLzAFPDD_OZHpl-13">
          <mxGeometry relative="1" as="geometry">
            <mxPoint x="235" y="745" as="sourcePoint" />
            <mxPoint x="670" y="472" as="targetPoint" />
            <Array as="points">
              <mxPoint x="258" y="540" />
              <mxPoint x="380" y="540" />
              <mxPoint x="380" y="465" />
            </Array>
          </mxGeometry>
        </mxCell>
        <mxCell id="g-0dDWGLzAFPDD_OZHpl-48" value="" style="edgeStyle=orthogonalEdgeStyle;rounded=0;orthogonalLoop=1;jettySize=auto;html=1;" edge="1" parent="g-0dDWGLzAFPDD_OZHpl-2" source="g-0dDWGLzAFPDD_OZHpl-45" target="g-0dDWGLzAFPDD_OZHpl-47">
          <mxGeometry relative="1" as="geometry" />
        </mxCell>
        <mxCell id="g-0dDWGLzAFPDD_OZHpl-49" value="Yes" style="edgeLabel;html=1;align=center;verticalAlign=middle;resizable=0;points=[];" vertex="1" connectable="0" parent="g-0dDWGLzAFPDD_OZHpl-48">
          <mxGeometry x="-0.1586" relative="1" as="geometry">
            <mxPoint x="-379" as="offset" />
          </mxGeometry>
        </mxCell>
      </root>
    </mxGraphModel>
  </diagram>
</mxfile>
